<?xml version="1.0" encoding="utf-8"?>
<!-- Generator: Adobe Illustrator 26.3.1, SVG Export Plug-In . SVG Version: 6.00 Build 0)  -->
<svg version="1.1" id="Layer_1" xmlns="http://www.w3.org/2000/svg" xmlns:xlink="http://www.w3.org/1999/xlink" x="0px" y="0px"
	 viewBox="0 0 157 200" style="enable-background:new 0 0 157 200;" xml:space="preserve">
<style type="text/css">
	.st0{fill:#7A97AB;}
	.st1{fill:#FFFFFF;}
	.st2{fill:#131E29;}
	.st3{fill:#7E4C37;}
	.st4{fill:#C36D15;}
	.st5{fill:#8D634B;}
	.st6{fill:none;stroke:#FFFFFF;stroke-width:2;stroke-miterlimit:10;}
</style>
<path class="st0" d="M78.5,195.3c-40.8,0-73.8-33-73.8-73.8V4.7h147.7v116.9C152.3,162.3,119.3,195.3,78.5,195.3z"/>
<polygon class="st1" points="23.9,129.2 43.4,106.9 48.1,86.5 48.1,62.2 58.5,54.2 66.7,54.2 72.7,50 90.9,50 105.8,64.6 
	130.3,64.6 129.4,83.6 126.3,93.8 128.2,102 128.2,108.5 121.6,110.4 106.8,110.9 100.2,109.1 99.5,173.9 62.2,169.7 "/>
<rect x="120.5" y="73.8" transform="matrix(-1 -4.451252e-11 4.451252e-11 -1 244.7391 151.4147)" class="st2" width="3.7" height="3.7"/>
<rect x="120.5" y="79.3" transform="matrix(-1 -4.451252e-11 4.451252e-11 -1 244.7391 162.4019)" class="st2" width="3.7" height="3.7"/>
<rect x="114.9" y="73.8" transform="matrix(-1 -4.451252e-11 4.451252e-11 -1 233.5217 151.4147)" class="st2" width="3.7" height="3.7"/>
<rect x="114.9" y="79.3" transform="matrix(-1 -4.451252e-11 4.451252e-11 -1 233.5217 162.4019)" class="st2" width="3.7" height="3.7"/>
<rect x="117.8" y="84.6" transform="matrix(-1 -4.451252e-11 4.451252e-11 -1 239.2609 173.0113)" class="st2" width="3.7" height="3.7"/>
<polygon class="st3" points="87.5,58 102,69.9 95.8,92.4 81.4,62.2 "/>
<path class="st4" d="M47.1,62.2l12.9-9h9.4l16.8,36.2c0,0-20.1,18.8-27.4,4.8L47.1,62.2z"/>
<line class="st5" x1="97.1" y1="66.9" x2="92.4" y2="69.9"/>
<g>
	<path class="st2" d="M79,61.5l17.2,36.2l7.9-28.5L87.6,55.7L79,61.5z M95.3,87.1L83.8,62.8l3.6-2.5l12.4,10.3L95.3,87.1z"/>
	<path class="st2" d="M133.7,61.4h-26.6L92.3,46.8H71.3l-3.2,3.1H59l-15.8,11l0.7,2l1,10.9l-2.2,24.5c-0.4,4-2,7.8-4.7,10.7
		l-16.4,18l-3.2,3.5l42.4,42.4l42.1,4.7v-64.3c2.3,0.7,5.3,1.4,8.5,1.4c0,0,0,0,0.1,0c10.7,0,17.1-2.2,19.5-6.5
		c0.5-0.9,1.4-2.5-1.1-13.8c1.7-3.2,2.7-6.8,2.9-10.5L133.7,61.4z M61,56.4h6.3l14.9,32.1c-3.9,3.2-11.4,8.3-16.4,7.5
		c-1.1-0.2-2.6-0.7-4-3.1L51,63.4L61,56.4z M96.2,170.2l-32.5-3.6l-36.4-36.4l15.4-16.8c3.7-4,5.9-9.2,6.4-14.6l1.5-17.3l5,13.8
		l0.2,0.4c2,3.8,5,6.1,8.8,6.7c0.7,0.1,1.5,0.2,2.2,0.2c9.6,0,20.3-9.7,21.6-10.9l1.7-1.6L73.4,53.9l0.6-0.6h15.6l14.9,14.6h15.9
		l6.3,6l-0.4,9.6c-0.3,7.5-5.1,13.9-12.2,16.4l-17.7,6.3V170.2z M111.3,108.1C111.3,108.1,111.3,108.1,111.3,108.1
		c-0.4,0-0.7,0-1.1,0l5.9-2.1c3.1-1.1,5.9-2.8,8.3-4.9c0.3,1.8,0.5,3.4,0.5,4.2C123.7,106.6,119.6,108.1,111.3,108.1z"/>
</g>
<path class="st2" d="M0,0v121.5C0,164.8,35.2,200,78.5,200s78.5-35.2,78.5-78.5V0H0z M78.5,190.7c-38.1,0-69.2-31-69.2-69.1V40.1
	h138.3v81.4C147.7,159.6,116.6,190.7,78.5,190.7z"/>
<g>
	<path class="st1" d="M9.3,31.1V8.9h4.6v17.3h4.8v4.9H9.3z"/>
	<path class="st1" d="M21.5,31.1V8.9h9.8v4.7h-5.2v3.9h5.1V22h-5.1v4.2h5.2v4.9H21.5z"/>
	<path class="st1" d="M37.5,31.1V13.6h-3.5V8.9h11.6v4.7h-3.5v17.5H37.5z"/>
	<path class="st1" d="M53.9,31.5c-2.8,0-4.2-0.4-4.9-1.8c-0.8-1.3-1.1-2.7-1.1-9.7s0.3-8.3,1.1-9.6C49.7,9,51,8.5,53.9,8.5
		c2.8,0,4.1,0.5,4.9,1.8c0.8,1.4,1.1,2.7,1.1,9.6s-0.3,8.3-1.1,9.7C58,31.1,56.7,31.5,53.9,31.5z M55.3,19.9c0-4.9-0.1-5.7-0.3-6.2
		c-0.1-0.4-0.4-0.6-1.1-0.6c-0.7,0-1,0.2-1.1,0.6c-0.2,0.6-0.3,1.3-0.3,6.2c0,4.8,0.1,5.5,0.3,6.1c0.1,0.4,0.4,0.5,1.1,0.5
		c0.7,0,1-0.1,1.1-0.5C55.2,25.4,55.3,24.6,55.3,19.9z"/>
	<path class="st1" d="M70.1,8.9h4.6v15.4c-0.1,3.7-0.4,4.6-1.1,5.6c-0.8,1.2-2.1,1.6-4.9,1.6c-2.8,0-4.2-0.4-4.9-1.6
		c-0.6-1-1.1-1.9-1.1-5.6V8.9h4.7v15.4c0,2.1,0.2,2.3,1.3,2.3c1.1,0,1.3-0.2,1.3-2.3V8.9z"/>
	<path class="st1" d="M85.3,31.1c-0.2-0.7-0.3-1.2-0.9-6.3c-0.2-2.1-0.5-2.3-1.1-2.3h-0.7v8.7H78V8.9h6.7c4,0,5,1.7,5,6
		c0,4.6-0.6,4.9-1.9,5.6v0.2c0.2,0.2,0.5,0.4,0.7,0.9c0.3,0.7,0.6,2,1,4.6c0.4,3.6,0.5,4.1,0.7,4.8v0.1H85.3z M83.9,18.3
		c0.9,0,1.2-0.6,1.2-2.6c0-1.8-0.4-2.2-1.3-2.2h-1.2v4.8H83.9z"/>
	<path class="st1" d="M102.6,31.1l-5.3-11.9h-0.2v11.9H93V8.9h4.5l3.1,7.7h0.2V8.9h4.2v22.2H102.6z"/>
	<path class="st1" d="M108.4,31.1V8.9h9.8v4.7H113v3.9h5.1V22H113v4.2h5.2v4.9H108.4z"/>
	<path class="st1" d="M128.5,31.1l-0.4-5.1h-2.2l-0.4,5.1h-4.6l2.4-22.2h7.7l2.2,22.2H128.5z M127.2,13.5h-0.3l-0.7,7.9h1.8
		L127.2,13.5z"/>
	<path class="st1" d="M142.9,8.9h4.6v15.4c-0.1,3.7-0.4,4.6-1.1,5.6c-0.8,1.2-2.1,1.6-4.9,1.6c-2.8,0-4.2-0.4-4.9-1.6
		c-0.6-1-1.1-1.9-1.1-5.6V8.9h4.7v15.4c0,2.1,0.2,2.3,1.4,2.3c1.1,0,1.3-0.2,1.3-2.3V8.9z"/>
</g>
<path class="st6" d="M90.8,69.8"/>
<path class="st6" d="M86.8,65.9"/>
<path class="st2" d="M92.6,67.5c0.4,1.4,1.3,3.1,2,3.1c1.4,0,3.1-1.1,3.1-2.4h0.2l-1.8-2.8L92.6,67.5z"/>
<rect x="88.1" y="60.2" transform="matrix(0.9053 -0.4248 0.4248 0.9053 -17.7043 45.7568)" class="st2" width="11.3" height="4.7"/>
<path class="st1" d="M97.7,68.2c0,1.3-1.7,2.4-3.1,2.4c-0.7,0-1.6-1.7-2-3.1l5.5-3.3l-0.5-0.8l-8,3.7l0-0.1c0.2,1.7,1.6,6.4,5,6.4
	c2.8,0,5.9-2.1,5.9-5.2H97.7z"/>
</svg>
