<?xml version="1.0" encoding="utf-8"?>
<!-- Generator: Adobe Illustrator 26.3.1, SVG Export Plug-In . SVG Version: 6.00 Build 0)  -->
<svg version="1.1" id="Layer_1" xmlns="http://www.w3.org/2000/svg" xmlns:xlink="http://www.w3.org/1999/xlink" x="0px" y="0px"
	 viewBox="0 0 1280 720" style="enable-background:new 0 0 1280 720;" xml:space="preserve">
<style type="text/css">
	.st0{fill:#263847;}
	.st1{fill:#7A97AB;}
	.st2{fill:#FFFFFF;}
	.st3{fill:#131E29;}
	.st4{fill:#7E4C37;}
	.st5{fill:#C36D15;}
	.st6{fill:none;}
	.st7{fill:none;stroke:#FFFFFF;stroke-width:5.2444;stroke-miterlimit:10;}
</style>
<rect class="st0" width="1280" height="720"/>
<path class="st1" d="M640,609.9c-107,0-193.5-86.5-193.5-193.5V110.1h387.3v306.5C833.5,523.4,747,609.9,640,609.9z"/>
<polygon class="st2" points="496.8,436.6 548,378.1 560.3,324.6 560.3,260.9 587.6,239.9 609.1,239.9 624.8,228.9 672.5,228.9 
	711.6,267.2 775.8,267.2 773.5,317 765.3,343.7 770.3,365.2 770.3,382.3 753,387.3 714.2,388.6 696.9,383.9 695.1,553.8 
	597.3,542.8 "/>
<rect x="750.1" y="291.6" class="st3" width="9.7" height="9.7"/>
<rect x="750.1" y="306" class="st3" width="9.7" height="9.7"/>
<rect x="735.4" y="291.6" class="st3" width="9.7" height="9.7"/>
<rect x="735.4" y="306" class="st3" width="9.7" height="9.7"/>
<rect x="743.1" y="319.9" class="st3" width="9.7" height="9.7"/>
<polygon class="st4" points="663.6,249.9 701.6,281.1 685.4,340.1 647.6,260.9 "/>
<path class="st5" d="M557.7,260.9l33.8-23.6h24.6l44.1,94.9c0,0-52.7,49.3-71.8,12.6L557.7,260.9z"/>
<line class="st6" x1="688.8" y1="273.2" x2="676.4" y2="281.1"/>
<g>
	<path class="st3" d="M641.3,259l45.1,94.9l20.7-74.7l-43.3-35.4L641.3,259z M684.1,326.2l-30.2-63.7l9.4-6.6l32.5,27L684.1,326.2z"
		/>
	<path class="st3" d="M784.7,258.8H715l-38.8-38.3h-55.1l-8.4,8.1h-23.9l-41.4,28.8l1.8,5.2l2.6,28.6l-5.8,64.2
		c-1,10.5-5.2,20.5-12.3,28.1l-43,47.2l-8.4,9.2l111.2,111.2L704,563.5V394.9c6,1.8,13.9,3.7,22.3,3.7c0,0,0,0,0.3,0
		c28.1,0,44.8-5.8,51.1-17c1.3-2.4,3.7-6.6-2.9-36.2c4.5-8.4,7.1-17.8,7.6-27.5L784.7,258.8z M594.1,245.7h16.5l39.1,84.2
		c-10.2,8.4-29.9,21.8-43,19.7c-2.9-0.5-6.8-1.8-10.5-8.1L567.9,264L594.1,245.7z M686.4,544.1l-85.2-9.4l-95.4-95.4l40.4-44.1
		c9.7-10.5,15.5-24.1,16.8-38.3l3.9-45.4l13.1,36.2l0.5,1c5.2,10,13.1,16,23.1,17.6c1.8,0.3,3.9,0.5,5.8,0.5
		c25.2,0,53.2-25.4,56.6-28.6l4.5-4.2l-43.8-94.9l1.6-1.6h40.9l39.1,38.3h41.7l16.5,15.7l-1,25.2c-0.8,19.7-13.4,36.4-32,43
		l-46.4,16.5v167.8H686.4L686.4,544.1z M726,381.2L726,381.2c-1,0-1.8,0-2.9,0l15.5-5.5c8.1-2.9,15.5-7.3,21.8-12.8
		c0.8,4.7,1.3,8.9,1.3,11C758.5,377.3,747.8,381.2,726,381.2z"/>
</g>
<path class="st3" d="M434.2,97.8v318.6c0,113.5,92.3,205.8,205.8,205.8s205.8-92.3,205.8-205.8V97.8H434.2z M640,597.8
	c-99.9,0-181.5-81.3-181.5-181.2V202.9h362.7v213.4C821.5,516.3,739.9,597.8,640,597.8z"/>
<g>
	<path class="st2" d="M458.5,179.3v-58.2h12.1v45.4h12.6v12.8C483.2,179.3,458.5,179.3,458.5,179.3z"/>
	<path class="st2" d="M490.5,179.3v-58.2h25.7v12.3h-13.6v10.2H516v11.8h-13.4v11h13.6v12.8H490.5z"/>
	<path class="st2" d="M532.5,179.3v-45.9h-9.2v-12.3h30.4v12.3h-9.2v45.9C544.6,179.3,532.5,179.3,532.5,179.3z"/>
	<path class="st2" d="M575.5,180.4c-7.3,0-11-1-12.8-4.7c-2.1-3.4-2.9-7.1-2.9-25.4s0.8-21.8,2.9-25.2c1.8-3.7,5.2-5,12.8-5
		c7.3,0,10.8,1.3,12.8,4.7c2.1,3.7,2.9,7.1,2.9,25.2s-0.8,21.8-2.9,25.4C586.2,179.3,582.8,180.4,575.5,180.4z M579.2,150
		c0-12.8-0.3-14.9-0.8-16.3c-0.3-1-1-1.6-2.9-1.6c-1.8,0-2.6,0.5-2.9,1.6c-0.5,1.6-0.8,3.4-0.8,16.3c0,12.6,0.3,14.4,0.8,16
		c0.3,1,1,1.3,2.9,1.3c1.8,0,2.6-0.3,2.9-1.3C578.9,164.4,579.2,162.3,579.2,150z"/>
	<path class="st2" d="M618,121.1H630v40.4c-0.3,9.7-1,12.1-2.9,14.7c-2.1,3.1-5.5,4.2-12.8,4.2s-11-1-12.8-4.2
		c-1.6-2.6-2.9-5-2.9-14.7v-40.4h12.3v40.4c0,5.5,0.5,6,3.4,6s3.4-0.5,3.4-6L618,121.1L618,121.1z"/>
	<path class="st2" d="M657.8,179.3c-0.5-1.8-0.8-3.1-2.4-16.5c-0.5-5.5-1.3-6-2.9-6h-1.8v22.8h-12.1v-58.5h17.6
		c10.5,0,13.1,4.5,13.1,15.7c0,12.1-1.6,12.8-5,14.7v0.5c0.5,0.5,1.3,1,1.8,2.4c0.8,1.8,1.6,5.2,2.6,12.1c1,9.4,1.3,10.8,1.8,12.6
		v0.3H657.8z M654.2,145.8c2.4,0,3.1-1.6,3.1-6.8c0-4.7-1-5.8-3.4-5.8h-3.1v12.6H654.2z"/>
	<path class="st2" d="M703.2,179.3l-13.9-31.2h-0.5v31.2H678v-58.2h11.8l8.1,20.2h0.5v-20.2h11v58.2H703.2z"/>
	<path class="st2" d="M718.4,179.3v-58.2h25.7v12.3h-13.6v10.2h13.4v11.8h-13.4v11h13.6v12.8H718.4z"/>
	<path class="st2" d="M771.1,179.3l-1-13.4h-5.8l-1,13.4h-12.1l6.3-58.2h20.2l5.8,58.2H771.1z M767.7,133.2h-0.8l-1.8,20.7h4.7
		L767.7,133.2z"/>
	<path class="st2" d="M808.9,121.1h12.1v40.4c-0.3,9.7-1,12.1-2.9,14.7c-2.1,3.1-5.5,4.2-12.8,4.2c-7.3,0-11-1-12.8-4.2
		c-1.6-2.6-2.9-5-2.9-14.7v-40.4h12.3v40.4c0,5.5,0.5,6,3.7,6c2.9,0,3.4-0.5,3.4-6V121.1z"/>
</g>
<path class="st7" d="M672.3,280.8"/>
<path class="st7" d="M661.8,270.6"/>
<path class="st3" d="M677,274.8c1,3.7,3.4,8.1,5.2,8.1c3.7,0,8.1-2.9,8.1-6.3h0.5l-4.7-7.3L677,274.8z"/>
<rect x="665.2" y="255.6" transform="matrix(0.9053 -0.4248 0.4248 0.9053 -46.8049 313.6463)" class="st3" width="29.6" height="12.3"/>
<path class="st2" d="M690.3,276.6c0,3.4-4.5,6.3-8.1,6.3c-1.8,0-4.2-4.5-5.2-8.1l14.4-8.7l-1.3-2.1l-21,9.7v-0.3
	c0.5,4.5,4.2,16.8,13.1,16.8c7.3,0,15.5-5.5,15.5-13.6C697.7,276.6,690.3,276.6,690.3,276.6z"/>
</svg>
