<?xml version="1.0" encoding="utf-8"?>
<!-- Generator: Adobe Illustrator 26.3.1, SVG Export Plug-In . SVG Version: 6.00 Build 0)  -->
<svg version="1.1"  xmlns="http://www.w3.org/2000/svg" xmlns:xlink="http://www.w3.org/1999/xlink" x="0px" y="0px"
	 viewBox="0 0 24 24" style="enable-background:new 0 0 24 24;" xml:space="preserve">

	<path d="M22,20.3c-0.9,0.9-1.8,1.8-2.8,2.7c-2.1-2.5-4.1-5.1-6.6-7.3C10.1,17.9,8.1,20.5,6,23c-0.9-0.9-1.8-1.8-2.8-2.7
		c2.5-2.2,5.1-4.2,7.3-6.7c-1.6-1.6-3.3-3.3-4.9-5C4.7,9.6,3.8,10.5,3,11.4c-1-1-2-1.9-3-2.9c0.9-0.9,1.8-1.8,2.7-2.7
		C2.5,5.5,2.3,5.3,2.1,5.1c0.7-0.7,1.3-1.3,2-2c0.2,0.2,0.3,0.4,0.5,0.6c1-0.9,1.9-1.8,2.7-2.7c1,1,2,1.9,3,2.9
		C9.5,4.8,8.6,5.7,7.6,6.6c1.6,1.7,3.3,3.3,4.9,4.9c1.7-1.6,3.3-3.3,5-5c-0.9-0.9-1.9-1.8-2.8-2.7c1-1,2-2,3-2.9
		c0.9,0.8,1.8,1.7,2.8,2.6c0.2-0.2,0.4-0.4,0.6-0.6c0.7,0.7,1.4,1.3,2.1,2c-0.2,0.2-0.4,0.4-0.5,0.5c0,0-0.1,0.2-0.1,0.2
		c0.5,1,0.8,2,0.9,3c0.2,1.4,0.4,2.9,0.6,4.3c0,0-0.1,0-0.1,0c-1.5-1.5-2.9-3-4.4-4.5c-1.6,1.7-3.3,3.3-4.9,5
		C16.8,16.1,19.4,18.2,22,20.3z" fill="currentColor"/>

</svg>
